<svg width="214" height="181" viewBox="0 0 214 181" fill="none" xmlns="http://www.w3.org/2000/svg">
<path d="M206.324 93.2447C206.324 117.211 196.535 138.814 180.839 154.341C165.481 169.699 144.215 178.982 120.756 178.982C97.4649 178.982 76.1994 169.53 60.6723 154.341C44.9764 138.814 35.1875 117.211 35.1875 93.2447C35.1875 45.8194 73.4991 7.50781 120.756 7.50781C168.012 7.50781 206.324 45.9882 206.324 93.2447Z" fill="#F1F3F9" stroke="#D6DCE8" stroke-width="3.37547" stroke-miterlimit="10"/>
<path d="M198.897 37.0386C202.719 37.0386 205.817 33.9406 205.817 30.1189C205.817 26.2973 202.719 23.1992 198.897 23.1992C195.076 23.1992 191.978 26.2973 191.978 30.1189C191.978 33.9406 195.076 37.0386 198.897 37.0386Z" fill="#F1F3F9"/>
<path d="M209.023 10.0372C211.633 10.0372 213.749 7.9215 213.749 5.31159C213.749 2.70169 211.633 0.585938 209.023 0.585938C206.414 0.585938 204.298 2.70169 204.298 5.31159C204.298 7.9215 206.414 10.0372 209.023 10.0372Z" fill="#F1F3F9"/>
<path d="M37.8878 36.8693C40.4977 36.8693 42.6134 34.7535 42.6134 32.1436C42.6134 29.5337 40.4977 27.418 37.8878 27.418C35.2779 27.418 33.1621 29.5337 33.1621 32.1436C33.1621 34.7535 35.2779 36.8693 37.8878 36.8693Z" fill="#F1F3F9"/>
<path d="M9.02719 128.013C13.8742 128.013 17.8034 124.084 17.8034 119.237C17.8034 114.39 13.8742 110.461 9.02719 110.461C4.18022 110.461 0.250977 114.39 0.250977 119.237C0.250977 124.084 4.18022 128.013 9.02719 128.013Z" fill="#F1F3F9"/>
<path d="M197.241 44.1002V137.609C197.241 141.501 194.125 144.584 190.306 144.584H49.4564C45.6374 144.584 42.4717 141.45 42.4717 137.609V44.1002C42.4717 40.2588 45.5872 37.125 49.4564 37.125H190.306C194.125 37.125 197.241 40.2588 197.241 44.1002Z" fill="white" stroke="#D6DCE8" stroke-width="3.37547" stroke-miterlimit="10" stroke-linejoin="round"/>
<path d="M197.241 44.1002V54.5631H42.4717V44.1002C42.4717 40.2588 45.5872 37.125 49.4564 37.125H190.306C194.125 37.125 197.241 40.2588 197.241 44.1002Z" fill="#D6DCE8"/>
<path d="M52.2204 48.4481C53.6635 48.4481 54.8334 47.2714 54.8334 45.8198C54.8334 44.3682 53.6635 43.1914 52.2204 43.1914C50.7773 43.1914 49.6074 44.3682 49.6074 45.8198C49.6074 47.2714 50.7773 48.4481 52.2204 48.4481Z" fill="#AAB2C5"/>
<path d="M60.7634 48.4481C62.2065 48.4481 63.3764 47.2714 63.3764 45.8198C63.3764 44.3682 62.2065 43.1914 60.7634 43.1914C59.3203 43.1914 58.1504 44.3682 58.1504 45.8198C58.1504 47.2714 59.3203 48.4481 60.7634 48.4481Z" fill="#AAB2C5"/>
<path d="M69.2546 48.4481C70.6977 48.4481 71.8676 47.2714 71.8676 45.8198C71.8676 44.3682 70.6977 43.1914 69.2546 43.1914C67.8115 43.1914 66.6416 44.3682 66.6416 45.8198C66.6416 47.2714 67.8115 48.4481 69.2546 48.4481Z" fill="#AAB2C5"/>
<path d="M74.7812 118.254H164.929" stroke="#D5DDEA" stroke-width="3.37547" stroke-miterlimit="10" stroke-linecap="round" stroke-linejoin="round"/>
<path d="M89.0039 127.906H150.711" stroke="#D5DDEA" stroke-width="3.37547" stroke-miterlimit="10" stroke-linecap="round" stroke-linejoin="round"/>
<path d="M104.782 91.0549V96.2611H101.616V101.265H95.687V96.2611H82.6221V90.2968L94.7322 73.3641H101.667V91.1055H104.782V91.0549ZM95.687 80.2888L88.1495 91.0549H95.687V80.2888Z" fill="#AAB2C5"/>
<path d="M119.656 101.821C113.325 101.821 107.747 96.2611 107.747 87.264C107.747 78.267 113.274 72.707 119.656 72.707C126.038 72.707 131.565 78.267 131.565 87.264C131.565 96.2611 126.038 101.821 119.656 101.821ZM119.656 96.4632C122.621 96.4632 125.586 93.4811 125.586 87.3146C125.586 81.1481 122.621 78.1659 119.656 78.1659C116.691 78.1659 113.727 81.1481 113.727 87.3146C113.727 93.4811 116.691 96.4632 119.656 96.4632Z" fill="#AAB2C5"/>
<path d="M157.142 91.0549V96.2611H153.977V101.265H148.047V96.2611H134.982V90.2968L147.092 73.3641H154.027V91.1055H157.142V91.0549ZM147.997 80.2888L140.459 91.0549H147.997V80.2888Z" fill="#AAB2C5"/>
<path d="M190.397 165.231L156.732 131.593L164.45 123.875L198.088 157.54L190.397 165.231Z" fill="#D6DCE8" stroke="#AAB2C5" stroke-width="3.37547" stroke-miterlimit="10"/>
<path d="M202.101 177.064L176.287 151.249C174.131 149.094 174.131 145.581 176.287 143.425C178.442 141.27 181.955 141.27 184.111 143.425L209.925 169.239C212.08 171.395 212.08 174.908 209.925 177.064C207.769 179.219 204.256 179.219 202.101 177.064Z" fill="#D6DCE8" stroke="#AAB2C5" stroke-width="3.37547" stroke-miterlimit="10"/>
<path d="M200.264 178.715L167.051 145.502C166.28 144.731 166.28 143.48 167.051 142.681L175.541 134.192C176.313 133.42 177.563 133.42 178.362 134.192L211.574 167.405C212.346 168.176 212.346 169.427 211.574 170.225L203.085 178.715C202.286 179.487 201.036 179.487 200.264 178.715Z" fill="#D6DCE8" stroke="#AAB2C5" stroke-width="3.37547" stroke-miterlimit="10"/>
<path d="M118.624 23.1992C83.3892 23.1992 54.834 51.7545 54.834 86.9895C54.834 122.198 83.3892 150.78 118.598 150.78C153.833 150.78 182.388 122.224 182.388 86.9895C182.388 51.7545 153.833 23.1992 118.624 23.1992ZM118.624 138.964C90.3351 138.964 67.4217 115.678 67.4217 86.9628C67.4217 58.2479 90.3351 34.9886 118.624 34.9886C146.913 34.9886 169.827 58.2745 169.827 86.9895C169.827 115.704 146.887 138.964 118.624 138.964Z" fill="#D6DCE8" stroke="#AAB2C5" stroke-width="3.37547" stroke-miterlimit="10"/>
</svg>
