<svg width="396" height="124" viewBox="0 0 396 124" fill="none" xmlns="http://www.w3.org/2000/svg">
<path d="M0 4.54238C0 2.03369 2.03369 0 4.54237 0H391.458C393.966 0 396 2.03369 396 4.54237V124H0V4.54238Z" fill="#F1F5FF"/>
<g opacity="0.2">
<rect width="7.1886" height="6.93896" transform="matrix(1 0 0 -1 262.52 101.908)" fill="#8CACF4"/>
</g>
<path d="M339.542 49.7154C339.542 50.9653 338.528 51.9785 337.278 51.9785H331.967V46.9306C331.967 45.6807 332.981 44.6674 334.231 44.6674H337.278C338.528 44.6674 339.542 45.6807 339.542 46.9306V49.7154Z" fill="#D9E3FB"/>
<path d="M331.968 57.0259C331.968 58.2758 330.955 59.2891 329.705 59.2891H326.657C325.407 59.2891 324.394 58.2758 324.394 57.0259V54.2411C324.394 52.9912 325.407 51.978 326.657 51.978H331.968V57.0259Z" fill="#D9E3FB"/>
<path d="M155.575 99.1294C155.575 100.379 154.562 101.393 153.312 101.393H150.465V98.7229C150.465 97.473 151.478 96.4598 152.728 96.4598H153.312C154.562 96.4598 155.575 97.473 155.575 98.7229V99.1294Z" fill="#D9E3FB"/>
<path d="M150.465 104.063C150.465 105.313 149.452 106.326 148.202 106.326H147.618C146.368 106.326 145.355 105.313 145.355 104.063V103.657C145.355 102.407 146.368 101.393 147.618 101.393H150.465V104.063Z" fill="#D9E3FB"/>
<path d="M118.248 53.9621C118.248 54.9981 117.408 55.8379 116.372 55.8379H114.361V54.0296C114.361 52.9563 115.231 52.0863 116.305 52.0863H116.372C117.408 52.0863 118.248 52.9261 118.248 53.9621V53.9621Z" fill="#D9E3FB"/>
<path d="M114.363 57.6465C114.363 58.7198 113.493 59.5898 112.419 59.5898H112.352C111.316 59.5898 110.476 58.75 110.476 57.714V57.714C110.476 56.6781 111.316 55.8382 112.352 55.8382H114.363V57.6465Z" fill="#D9E3FB"/>
<path d="M316.932 96.5755C316.932 97.2004 317.438 97.707 318.063 97.707H318.598C319.223 97.707 319.73 97.2004 319.73 96.5755V95.0059H318.063C317.438 95.0059 316.932 95.5125 316.932 96.1375V96.5755Z" fill="#8CACF4"/>
<path d="M90.0315 18.3679C90.0315 17.743 89.5249 17.2363 88.8999 17.2363H86.4611C85.8361 17.2363 85.3295 17.743 85.3295 18.3679V21.775H88.8999C89.5249 21.775 90.0315 21.2684 90.0315 20.6435V18.3679Z" fill="#B2C7F7"/>
<path d="M85.3301 12.0586H81.7596C81.1347 12.0586 80.6281 12.5652 80.6281 13.1902V15.4657C80.6281 16.0907 81.1347 16.5973 81.7596 16.5973H84.1985C84.8235 16.5973 85.3301 16.0907 85.3301 15.4657V12.0586Z" fill="#D9E3FB"/>
<rect width="5.95625" height="5.74937" transform="matrix(1 0 0 -1 138.82 42.7363)" fill="#D9E3FB"/>
<rect width="5.95625" height="5.74937" transform="matrix(1 0 0 -1 144.778 48.4863)" fill="#D9E3FB"/>
<rect width="5.95625" height="5.74937" transform="matrix(1 0 0 -1 132.865 48.4863)" fill="#D9E3FB"/>
<rect width="4.54239" height="4.3846" transform="matrix(1 0 0 -1 282.762 33.5723)" fill="#8CACF4"/>
<rect width="4.54237" height="4.38461" transform="matrix(1 0 0 -1 40.8821 93.1719)" fill="#8CACF4"/>
</svg>
