<svg width="72" height="72" viewBox="0 0 72 72" fill="none" xmlns="http://www.w3.org/2000/svg">
<path d="M1.38889 5.88867C1.38889 3.40339 3.4036 1.38867 5.88889 1.38867H67C69.4853 1.38867 71.5 3.40339 71.5 5.88867V66.9998C71.5 69.4851 69.4853 71.4998 67 71.4998H5.88889C3.4036 71.4998 1.38889 69.4851 1.38889 66.9998V5.88867Z" fill="white" stroke="#C8D7F9"/>
<path d="M0.5 4C0.5 2.06701 2.067 0.5 4 0.5H67.1111C69.0441 0.5 70.6111 2.067 70.6111 4V67.1111C70.6111 69.0441 69.0441 70.6111 67.1111 70.6111H4C2.06701 70.6111 0.5 69.0441 0.5 67.1111V4Z" fill="white" stroke="#EDF2FD"/>
<path d="M41.248 23.333L48.6667 30.7557V41.249L41.248 48.6663H30.7547L23.3333 41.2477V30.7543L30.7547 23.333H41.248ZM40.1427 25.9997H31.8587L26.0013 31.8597V40.1437L31.8587 46.0023H40.1427L46.0013 40.1437V31.8583L40.1427 26.001V25.9997ZM34.6667 39.9997H37.3333V42.6663H34.6667V39.9997ZM34.6667 29.333H37.3333V37.333H34.6667V29.333Z" fill="#CF2116"/>
</svg>
