<svg width="120" height="125" viewBox="0 0 120 125" fill="none" xmlns="http://www.w3.org/2000/svg">
<path d="M104.86 46.3357C106.972 46.3357 108.684 44.6218 108.684 42.5077C108.684 40.3935 106.972 38.6797 104.86 38.6797C102.747 38.6797 101.035 40.3935 101.035 42.5077C101.035 44.6218 102.747 46.3357 104.86 46.3357Z" fill="#EAEEF9"/>
<path d="M3.26618 67.0369C4.65582 67.0369 5.78235 65.9093 5.78235 64.5184C5.78235 63.1275 4.65582 62 3.26618 62C1.87653 62 0.75 63.1275 0.75 64.5184C0.75 65.9093 1.87653 67.0369 3.26618 67.0369Z" fill="#EAEEF9"/>
<path d="M14.8326 112.314C16.2222 112.314 17.3488 111.187 17.3488 109.796C17.3488 108.405 16.2222 107.277 14.8326 107.277C13.4429 107.277 12.3164 108.405 12.3164 109.796C12.3164 111.187 13.4429 112.314 14.8326 112.314Z" fill="#EAEEF9"/>
<path d="M28.2832 112.312L63.5922 101.248V55.8867L28.2832 66.8654V112.312Z" fill="#F1F3F9" stroke="#D6DCE8" stroke-width="2" stroke-miterlimit="10" stroke-linejoin="round"/>
<path d="M98.9008 112.312L63.5918 101.248V55.8867L98.9008 66.8654V112.312Z" fill="#F1F3F9" stroke="#D6DCE8" stroke-width="2" stroke-miterlimit="10" stroke-linejoin="round"/>
<path d="M63.5922 123.461L28.2832 112.397V67.0352L63.5922 78.099V123.461Z" fill="white" stroke="#D6DCE8" stroke-width="2" stroke-miterlimit="10" stroke-linejoin="round"/>
<path d="M63.5918 123.461L98.9008 112.397V67.0352L63.5918 78.099V123.461Z" fill="white" stroke="#D6DCE8" stroke-width="2" stroke-miterlimit="10" stroke-linejoin="round"/>
<path d="M63.5918 55.8865L46.9907 43.4609L11.0918 55.546L28.2828 66.8652L63.5918 55.8865Z" fill="#F1F3F9" stroke="#D6DCE8" stroke-width="2" stroke-miterlimit="10" stroke-linejoin="round"/>
<path d="M63.5918 55.8865L80.1929 43.4609L116.092 55.546L98.9008 66.8652L63.5918 55.8865Z" fill="#F1F3F9" stroke="#D6DCE8" stroke-width="2" stroke-miterlimit="10" stroke-linejoin="round"/>
<path d="M28.2828 67.0352L63.5918 78.099L45.9794 89.333L11.0918 77.7586L28.2828 67.0352Z" fill="#F1F3F9" stroke="#D6DCE8" stroke-width="2" stroke-miterlimit="10" stroke-linejoin="round"/>
<path d="M98.9008 67.0352L63.5918 78.099L81.2042 89.333L116.092 77.7586L98.9008 67.0352Z" fill="#F1F3F9" stroke="#D6DCE8" stroke-width="2" stroke-miterlimit="10" stroke-linejoin="round"/>
<path d="M73.4433 12.3394C78.3898 25.7639 79.8643 28.7467 80.3482 41.9746C80.1621 44.9941 80.0467 48.2775 78.6231 50.9213C76.722 54.9658 72.072 57.7668 67.6786 57.8121C63.1527 57.893 58.7156 55.1219 56.7185 50.8488C55.3134 48.2555 55.3581 44.7082 57.2855 42.3536C59.3808 40.0955 63.067 39.5324 65.7187 40.9434C68.6356 42.2834 70.3766 45.0695 71.0215 48.0079C71.6663 50.9462 71.383 54.1332 70.5958 57.0308C68.9496 64.0783 67.5861 64.4192 63.5488 76.351" stroke="#C9D4E2" stroke-width="2" stroke-miterlimit="10" stroke-dasharray="4 4"/>
<path d="M79.4627 5.233C79.4512 7.20698 77.6143 8.41567 75.2847 7.78538C72.832 7.36727 71.096 6.93635 70.9843 5.17455C71.0405 3.36775 73.0119 2.6606 75.3192 1.86346C78.0858 0.764135 79.3062 3.30402 79.4627 5.233Z" fill="#F1F3F9" stroke="#D6DCE8" stroke-width="2" stroke-miterlimit="10" stroke-linejoin="round"/>
<path d="M63.6139 11.2679C64.857 12.5475 67.4777 12.9207 68.7548 10.9661C70.1551 8.79928 71.3538 7.22404 70.066 5.77723C68.8229 4.49759 67.6132 5.35911 64.8466 6.45843C62.6289 7.58994 62.1581 9.86609 63.6139 11.2679Z" fill="#F1F3F9" stroke="#D6DCE8" stroke-width="2" stroke-miterlimit="10" stroke-linejoin="round"/>
<path d="M69.3501 3.10282C70.4814 2.62066 71.8365 2.97439 72.4412 3.88748C72.6988 4.17684 73.0011 4.63339 73.0906 4.96775C74.0535 7.21828 73.7508 9.44943 72.4515 9.97659C71.029 10.7159 69.0692 9.4491 68.3191 7.32076C68.14 6.65203 68.0504 6.31767 67.9161 5.81613C67.7707 4.60087 68.2188 3.58498 69.3501 3.10282C69.3501 3.10282 69.5181 3.05782 69.3501 3.10282Z" fill="#F1F3F9"/>
<path d="M69.3501 3.10282C70.4814 2.62066 71.8365 2.97439 72.4412 3.88748C72.6988 4.17684 73.0011 4.63339 73.0906 4.96775C74.0535 7.21828 73.7508 9.44943 72.4515 9.97659C71.029 10.7159 69.0692 9.4491 68.3191 7.32076C68.14 6.65203 68.0504 6.31767 67.9161 5.81613C67.7707 4.60087 68.2188 3.58498 69.3501 3.10282ZM69.3501 3.10282C69.3501 3.10282 69.5181 3.05782 69.3501 3.10282Z" stroke="#D6DCE8" stroke-width="2" stroke-miterlimit="10" stroke-linejoin="round"/>
<path d="M17.3491 39.3307H15.159V37.1406H13.2818V39.3307H11.0918V41.2704H13.2818V43.4605H15.159V41.2704H17.3491V39.3307Z" fill="#AAB2C5"/>
<path d="M22.1596 94.2799H19.9696V92.0898H18.0924V94.2799H15.9023V96.2196H18.0924V98.4097H19.9696V96.2196H22.1596V94.2799Z" fill="#AAB2C5"/>
<path d="M117.897 94.4043L115.217 93.0514L116.57 90.3718L114.273 89.2122L112.92 91.8918L110.241 90.5389L109.043 92.9122L111.722 94.2651L110.369 96.9447L112.666 98.1043L114.019 95.4247L116.698 96.7776L117.897 94.4043Z" fill="#AAB2C5"/>
</svg>
